<?xml version="1.0" encoding="utf-8"?>
<!-- Generator: Adobe Illustrator 22.1.0, SVG Export Plug-In . SVG Version: 6.00 Build 0)  -->
<svg version="1.1" id="Layer_1" xmlns="http://www.w3.org/2000/svg" xmlns:xlink="http://www.w3.org/1999/xlink" x="0px" y="0px"
	 viewBox="0 0 696.8 301" style="enable-background:new 0 0 696.8 301;" xml:space="preserve">
<g>
	<path d="M123.3,85.3h1.5v17.9h-1.5l-0.6-3.1c-0.3-1.5-1.1-2.8-2.5-3.6c-1.3-0.9-3-1.3-5-1.3h-11.5v32c0.2,0.6,0.8,0.9,1.8,1
		l4.5,0.4v1.5H89.5v-1.5l4.5-0.4c1.1-0.1,1.7-0.4,1.8-1.2V70.8c-0.1-0.7-0.7-1.1-1.8-1.2l-4.5-0.4v-1.5H134l0.9,15.4h-1.5
		c-0.9-2.5-1.8-4.8-2.7-6.8c-0.5-1.2-0.9-2.1-1.2-2.8c-0.4-0.7-0.7-1.3-1-1.9c-0.3-0.6-0.7-1-1-1.4c-0.3-0.4-0.6-0.6-0.8-0.6h-22.8
		v23.7h11.5c2,0,3.6-0.4,5-1.3c1.3-0.9,2.2-2.1,2.5-3.6L123.3,85.3z"/>
	<path d="M166.1,101c0.7,0,1.3,0,2.1,0c0.7,0,1.5,0.1,2.3,0.2v-0.4c0-4.5-0.7-7.9-2-10.4c-1.3-2.5-3.9-3.7-7.8-3.7
		c-0.7,0-1.6,0-2.7,0.1c-1.1,0.1-2.2,0.2-3.2,0.5c-1,0.3-1.9,0.6-2.6,1.1c-0.7,0.5-1.1,1.1-1.1,2c0,0.5,0.1,1,0.4,1.5
		c0.3,0.5,0.4,1.1,0.4,1.7c0,1.4-0.4,2.3-1.2,2.9c-0.8,0.6-1.8,0.8-2.9,0.8c-1.1,0-2.1-0.4-2.9-1.1c-0.8-0.7-1.2-1.8-1.2-3.1
		c0-1.4,0.5-2.6,1.6-3.6c1.1-1,2.4-1.9,4.1-2.6c1.7-0.7,3.5-1.3,5.5-1.7c2-0.4,3.9-0.6,5.7-0.6c2.4,0,4.7,0.4,6.9,1.1
		c2.1,0.7,4,1.8,5.5,3.3c1.5,1.4,2.8,3.2,3.7,5.3c0.9,2.1,1.3,4.5,1.3,7.2v22.8c0,1,0.1,1.8,0.4,2.5c0.3,0.6,0.8,0.9,1.7,0.9
		c0.8,0,1.5-0.2,1.9-0.7s0.8-1.1,1.1-2.1l1.4,0.5c-0.7,1.6-1.4,2.8-2.3,3.7c-0.9,0.8-2.3,1.3-4.2,1.3c-2.4,0-4.3-0.6-5.6-1.7
		c-1.4-1.2-2.1-2.7-2.1-4.5v-0.5c-1.2,2.4-2.8,4.2-4.9,5.4c-2.1,1.2-4.7,1.8-7.9,1.8c-2.5,0-4.8-0.2-6.9-0.7
		c-2.1-0.4-3.9-1.2-5.4-2.3c-1.5-1.1-2.6-2.5-3.5-4.4c-0.8-1.8-1.3-4.2-1.3-7c0-3.4,0.8-6.1,2.5-8.2c1.7-2.1,3.8-3.6,6.3-4.7
		c2.5-1.1,5.3-1.8,8.3-2.1C160.7,101.2,163.5,101,166.1,101z M170.4,117.5l0.1-14.3c-0.8-0.1-1.6-0.2-2.3-0.2c-0.7,0-1.4,0-2.1,0
		c-2.4,0-4.6,0.1-6.7,0.4c-2.1,0.3-4,0.8-5.5,1.7c-1.6,0.9-2.8,2.2-3.7,4c-0.9,1.8-1.4,4.2-1.4,7.2c0,3.7,0.7,6.7,2.1,8.9
		c1.4,2.2,4.1,3.3,8,3.3c3.2,0,5.8-1,7.7-3C168.5,123.5,169.8,120.9,170.4,117.5z"/>
	<path d="M196.4,68c0-0.5-0.4-0.9-1.1-1.2c-0.7-0.3-1.6-0.5-2.5-0.6c-1.1-0.2-2.3-0.3-3.7-0.3v-1.8l14.8-0.4V92
		c1.2-1.5,2.9-3,5.1-4.3c2.2-1.3,5.3-2,9.1-2c7.1,0,12.3,2,15.5,6.1c3.3,4.1,4.9,9.6,4.9,16.6c0,7-1.6,12.6-4.9,16.6
		c-3.3,4-8.5,6.1-15.5,6.1c-2,0-3.8-0.2-5.4-0.6c-1.6-0.4-3-1-4.2-1.7c-1.2-0.7-2.2-1.4-3-2.3c-0.8-0.8-1.5-1.7-2.1-2.5l-6.2,6.2
		h-0.9V68z M204,120c0.6,1.6,1.5,3,2.7,4.3c1.1,1.2,2.4,2.2,4.1,3.1c1.7,0.9,3.8,1.3,6.4,1.3c4.8,0,8.2-1.7,10.3-5.2
		c2.1-3.5,3.1-8.5,3.1-15.1c0-6.6-1-11.6-3.1-15.1c-2.1-3.5-5.5-5.2-10.3-5.2c-2.6,0-4.8,0.4-6.5,1.3c-1.7,0.9-3,1.9-4,2.9
		c-1.2,1.3-2.1,2.8-2.8,4.4V120z"/>
	<path d="M273.5,85.1c1.2,0.1,2.4,0.3,3.5,0.6c1.1,0.4,2.1,0.9,3,1.5c0.9,0.7,1.6,1.4,2.1,2.4c0.5,0.9,0.8,2,0.8,3.3
		c0,0.9-0.3,1.8-0.9,2.8c-0.6,1-1.8,1.5-3.4,1.5c-1.1,0-2-0.3-2.7-0.9c-0.7-0.6-1.1-1.5-1.1-2.5c-0.1-0.7,0-1.3,0.3-1.9
		c0.3-0.5,0.4-1.1,0.4-1.8c0-1.3-0.4-2-1.3-2.3c-0.9-0.3-1.8-0.4-2.8-0.4c-2.3,0.1-4.2,0.6-5.7,1.5c-1.5,0.9-2.8,1.8-3.7,2.8
		c-1,1-1.6,1.9-2.1,2.8c-0.4,0.9-0.7,1.4-0.7,1.6v31.2c0.1,0.6,0.7,1,1.8,1.2l3.6,0.4v1.5h-18.3v-1.5l3.6-0.4
		c1.1-0.1,1.7-0.4,1.8-1.2V89.4c0-0.5-0.3-0.9-1-1.2c-0.7-0.3-1.4-0.5-2.1-0.6c-0.9-0.2-1.9-0.3-3.1-0.3v-1.8l13.8-0.4v6.8
		c1.6-2.4,3.7-4.1,6.2-5.2C268,85.7,270.7,85.1,273.5,85.1z"/>
	<path d="M288.9,85.6l13.8-0.4v42c0.1,0.6,0.7,1,1.8,1.2l3.6,0.4v1.5h-18.3v-1.5l3.6-0.4c1.1-0.1,1.7-0.4,1.8-1.2V89.4
		c0-0.5-0.3-0.9-1-1.2c-0.7-0.3-1.4-0.5-2.1-0.6c-0.9-0.2-1.9-0.3-3.1-0.3V85.6z M294,73.2c0-1.4,0.5-2.5,1.4-3.5
		c1-1,2.1-1.4,3.5-1.4c1.3,0,2.4,0.5,3.4,1.4c1,1,1.4,2.1,1.4,3.5c0,1.3-0.5,2.5-1.4,3.4c-1,1-2.1,1.5-3.4,1.5
		c-1.4,0-2.5-0.5-3.5-1.5C294.5,75.6,294,74.5,294,73.2z"/>
	<path d="M345.2,126.3l-13.9-19.4l-3.1,2.8v17.4c0.1,0.6,0.7,1,1.8,1.2l3.6,0.4v1.5h-18.3v-1.5l3.6-0.4c1.1-0.1,1.7-0.4,1.8-1.2V68
		c0-0.5-0.3-0.9-1-1.2c-0.7-0.3-1.4-0.5-2.1-0.6c-0.9-0.2-1.9-0.3-3.1-0.3v-1.8l13.8-0.4v43.2l17.8-16.2c0.7-0.7,1-1.3,0.9-2.1
		c-0.1-0.7-0.6-1.1-1.7-1.3l-2.9-0.3v-1.5h15v1.5l-2.4,0.4c-0.9,0.1-1.9,0.5-2.9,1.2c-1.1,0.7-1.9,1.3-2.6,1.9L336.6,102l17.6,24.3
		c0.5,0.6,1,1.1,1.5,1.4c0.5,0.4,1.3,0.6,2.4,0.7l2.1,0.3v1.5H342v-1.5l2.1-0.2C345.8,128.3,346.2,127.6,345.2,126.3z"/>
	<path d="M392.8,101c0.7,0,1.3,0,2.1,0c0.7,0,1.5,0.1,2.3,0.2v-0.4c0-4.5-0.7-7.9-2-10.4c-1.3-2.5-3.9-3.7-7.8-3.7
		c-0.7,0-1.6,0-2.7,0.1c-1.1,0.1-2.2,0.2-3.2,0.5c-1,0.3-1.9,0.6-2.6,1.1c-0.7,0.5-1.1,1.1-1.1,2c0,0.5,0.1,1,0.4,1.5
		c0.3,0.5,0.4,1.1,0.4,1.7c0,1.4-0.4,2.3-1.2,2.9c-0.8,0.6-1.8,0.8-2.9,0.8s-2.1-0.4-2.9-1.1c-0.8-0.7-1.2-1.8-1.2-3.1
		c0-1.4,0.5-2.6,1.6-3.6c1.1-1,2.4-1.9,4.1-2.6c1.7-0.7,3.5-1.3,5.5-1.7c2-0.4,3.9-0.6,5.7-0.6c2.4,0,4.7,0.4,6.9,1.1
		c2.1,0.7,4,1.8,5.5,3.3c1.5,1.4,2.8,3.2,3.7,5.3c0.9,2.1,1.3,4.5,1.3,7.2v22.8c0,1,0.1,1.8,0.4,2.5c0.3,0.6,0.8,0.9,1.7,0.9
		c0.8,0,1.5-0.2,1.9-0.7c0.4-0.4,0.8-1.1,1.1-2.1l1.4,0.5c-0.7,1.6-1.4,2.8-2.3,3.7c-0.9,0.8-2.3,1.3-4.2,1.3
		c-2.4,0-4.3-0.6-5.6-1.7c-1.4-1.2-2.1-2.7-2.1-4.5v-0.5c-1.2,2.4-2.8,4.2-4.9,5.4c-2.1,1.2-4.7,1.8-7.9,1.8c-2.5,0-4.8-0.2-6.9-0.7
		c-2.1-0.4-3.9-1.2-5.4-2.3c-1.5-1.1-2.6-2.5-3.5-4.4c-0.8-1.8-1.3-4.2-1.3-7c0-3.4,0.8-6.1,2.5-8.2c1.7-2.1,3.8-3.6,6.3-4.7
		c2.5-1.1,5.3-1.8,8.3-2.1C387.4,101.2,390.2,101,392.8,101z M397.1,117.5l0.1-14.3c-0.8-0.1-1.6-0.2-2.3-0.2c-0.7,0-1.4,0-2.1,0
		c-2.4,0-4.6,0.1-6.7,0.4c-2.1,0.3-4,0.8-5.5,1.7c-1.6,0.9-2.8,2.2-3.7,4c-0.9,1.8-1.4,4.2-1.4,7.2c0,3.7,0.7,6.7,2.1,8.9
		c1.4,2.2,4.1,3.3,8,3.3c3.2,0,5.8-1,7.7-3C395.2,123.5,396.5,120.9,397.1,117.5z"/>
	<path d="M469.2,127.4c-0.6,0.5-1.3,1-2,1.4c-0.7,0.4-1.4,0.8-2.1,1s-1.6,0.4-2.4,0.4c-3.1,0-5.5-0.4-7.2-1.1c-1.7-0.7-3-1.7-3.8-3
		c-0.8-1.3-1.2-2.9-1.4-4.7c-0.1-1.8-0.2-3.9-0.2-6.2V87.5h-7.4v-2h1.3c1.3,0,2.6-0.3,4-1c1.4-0.7,2.6-1.6,3.8-2.7
		c1.1-1.1,2.1-2.4,2.8-3.7c0.7-1.4,1.1-2.8,1.1-4.2h2.1v11.7h13.1v2h-13.1v31c0,1.4,0,2.7,0.1,3.9c0.1,1.2,0.3,2.2,0.7,3
		c0.4,0.9,0.9,1.5,1.7,2c0.8,0.5,1.8,0.7,3.2,0.7c0.6,0,1.2-0.1,1.7-0.4c0.5-0.2,1-0.5,1.5-0.8c0.4-0.3,0.9-0.6,1.5-1.1L469.2,127.4
		z"/>
	<path d="M498,129.1v2c-3.2,0-6.1-0.5-8.7-1.5c-2.7-1-5-2.5-6.9-4.4c-1.9-2-3.5-4.4-4.6-7.3c-1.1-2.9-1.7-6.2-1.7-10
		c0-3.9,0.5-7.2,1.6-10.1c1-2.9,2.5-5.3,4.3-7.2c1.8-1.9,4-3.4,6.5-4.4c2.5-1,5.3-1.5,8.2-1.5c2.7,0,5.3,0.5,7.8,1.4
		c2.5,0.9,4.6,2.3,6.5,4c1.8,1.8,3.3,3.9,4.4,6.3c1.1,2.5,1.7,5.3,1.7,8.3h-32.8c-0.1,0.5-0.1,1-0.1,1.5c0,0.5,0,1.1,0,1.6
		c0,3.2,0.2,6.1,0.5,8.7c0.4,2.6,1,4.8,2,6.7c1,1.9,2.4,3.3,4.2,4.3C492.7,128.6,495.1,129.1,498,129.1z M484.4,102.5h23.3
		c0.3-2,0.3-4,0-5.9c-0.3-1.9-0.9-3.6-1.8-5.1c-0.9-1.5-2.1-2.7-3.6-3.6c-1.5-0.9-3.4-1.3-5.6-1.3c-2.3,0-4.1,0.4-5.6,1.1
		c-1.5,0.7-2.7,1.8-3.7,3.2c-1,1.4-1.7,3-2.1,5C484.9,97.9,484.5,100.1,484.4,102.5z M498,131.1v-2c2.1,0,4-0.3,5.8-1
		c1.8-0.7,3.3-1.6,4.8-2.7c1.4-1.2,2.7-2.5,3.8-4.1c1.1-1.5,2-3.2,2.8-4.9l1.8,0.8c-0.7,1.8-1.7,3.5-2.8,5.2
		c-1.2,1.7-2.5,3.2-4.1,4.5c-1.6,1.3-3.4,2.3-5.4,3.1C502.7,130.7,500.5,131.1,498,131.1z"/>
	<path d="M551.8,106l13.8,19c1.2,1.7,2.4,2.7,3.7,3c1.3,0.3,2.1,0.6,2.7,0.7v1.5h-17.4v-1.5l2.6-0.4c1.4-0.2,1.5-1,0.4-2.6
		L546.7,111l-10.4,12.2c-1.3,1.5-1.9,2.8-1.8,3.7c0.1,0.9,1,1.4,2.7,1.6l2.2,0.2v1.5h-14.7v-1.5c1.9,0,3.6-0.6,5.2-1.9
		c1.5-1.3,3-2.8,4.4-4.4l11.1-13.1l-13.4-18.5c-1.2-1.7-2.4-2.7-3.7-3c-1.3-0.3-2.1-0.6-2.7-0.7v-1.5H543v1.5l-2.6,0.4
		c-1.4,0.2-1.5,1-0.4,2.6l10.4,14.2l9.9-11.7c1.2-1.5,1.8-2.8,1.7-3.7c-0.1-0.9-1-1.4-2.7-1.5l-2.2-0.3v-1.5h14.7v1.5
		c-1.9,0-3.6,0.7-5.2,2c-1.5,1.3-3,2.8-4.4,4.4L551.8,106z"/>
	<path d="M602.7,127.4c-0.6,0.5-1.3,1-2,1.4c-0.7,0.4-1.4,0.8-2.1,1s-1.6,0.4-2.4,0.4c-3.1,0-5.5-0.4-7.2-1.1c-1.7-0.7-3-1.7-3.8-3
		c-0.8-1.3-1.2-2.9-1.4-4.7c-0.1-1.8-0.2-3.9-0.2-6.2V87.5h-7.4v-2h1.3c1.3,0,2.6-0.3,4-1c1.4-0.7,2.6-1.6,3.8-2.7
		c1.1-1.1,2.1-2.4,2.8-3.7c0.7-1.4,1.1-2.8,1.1-4.2h2.1v11.7h13.1v2h-13.1v31c0,1.4,0,2.7,0.1,3.9c0.1,1.2,0.3,2.2,0.7,3
		c0.4,0.9,0.9,1.5,1.7,2c0.8,0.5,1.8,0.7,3.2,0.7c0.6,0,1.2-0.1,1.7-0.4c0.5-0.2,1-0.5,1.5-0.8c0.4-0.3,0.9-0.6,1.5-1.1L602.7,127.4
		z"/>
	<path d="M90,187.3c0,3.7-0.6,6.9-1.9,9.7c-1.3,2.8-3,5.1-5.2,6.9c-2.2,1.8-4.9,3.2-8,4.2c-3.1,0.9-6.5,1.4-10.1,1.4h-1.3v6.8
		c0.1,0.7,0.7,1.1,1.8,1.2l4.5,0.4v1.5H49.2v-1.5l4.5-0.4c1.1-0.1,1.7-0.4,1.8-1.2v-6.8h-1.3c-3.6,0-7-0.5-10.1-1.4
		c-3.1-0.9-5.8-2.3-8-4.2s-4-4.1-5.2-6.9c-1.3-2.8-1.9-6-1.9-9.7v-0.1c0-3.7,0.6-6.9,1.9-9.7c1.2-2.8,3-5.1,5.2-6.9
		c2.2-1.8,4.9-3.2,8-4.1c3.1-0.9,6.5-1.4,10.1-1.4h1.3v-5c-0.1-0.7-0.7-1.1-1.8-1.2l-4.5-0.4V157h20.5v1.5l-4.5,0.4
		c-1.1,0.1-1.7,0.4-1.8,1.2v5h1.3c3.6,0,7,0.5,10.1,1.4c3.1,0.9,5.8,2.3,8,4.1c2.2,1.8,4,4.1,5.2,6.9C89.4,180.3,90,183.5,90,187.3
		L90,187.3z M37.4,187.3c0,2.9,0.3,5.6,0.8,8.1c0.6,2.5,1.5,4.6,2.7,6.4c1.2,1.8,2.8,3.2,4.7,4.3c1.9,1,4.3,1.6,7,1.6h2.8V167h-2.8
		c-2.7,0-5.1,0.5-7,1.6c-1.9,1-3.5,2.5-4.7,4.3c-1.2,1.8-2.1,4-2.7,6.4C37.7,181.7,37.4,184.4,37.4,187.3z M63.5,167v40.6h2.8
		c2.7,0,5.1-0.5,7-1.6c1.9-1,3.5-2.5,4.7-4.3c1.2-1.8,2.1-4,2.7-6.4c0.6-2.5,0.8-5.2,0.8-8.1s-0.3-5.6-0.8-8.1
		c-0.6-2.5-1.5-4.6-2.7-6.4c-1.2-1.8-2.8-3.2-4.7-4.2c-1.9-1-4.3-1.5-7-1.5H63.5z"/>
	<path d="M128.1,213.4v-0.5c-1.2,2.4-2.8,4.2-4.9,5.4c-2.1,1.2-4.7,1.8-7.9,1.8c-2.5,0-4.8-0.2-6.9-0.7c-2.1-0.4-3.9-1.2-5.4-2.3
		c-1.5-1.1-2.6-2.5-3.5-4.4c-0.8-1.8-1.3-4.2-1.3-7c0-3.4,0.8-6.1,2.5-8.2c1.7-2.1,3.8-3.6,6.3-4.7c2.5-1.1,5.3-1.8,8.3-2.1
		c3-0.3,5.8-0.5,8.4-0.5c0.7,0,1.3,0,2.1,0c0.7,0,1.5,0.1,2.3,0.2v-0.4c0-4.5-0.7-7.9-2-10.4c-1.3-2.5-3.9-3.7-7.8-3.7
		c-0.7,0-1.6,0-2.7,0.1c-1.1,0.1-2.2,0.2-3.2,0.5c-1,0.3-1.9,0.6-2.6,1.1c-0.7,0.5-1.1,1.1-1.1,2c0,0.5,0.1,1,0.4,1.5
		c0.3,0.5,0.4,1.1,0.4,1.7c0,1.4-0.4,2.3-1.2,2.9c-0.8,0.6-1.8,0.8-2.9,0.8c-1.1,0-2.1-0.4-2.9-1.1c-0.8-0.7-1.2-1.8-1.2-3.1
		s0.5-2.6,1.6-3.6c1.1-1,2.4-1.9,4.1-2.6c1.7-0.7,3.5-1.3,5.5-1.7c2-0.4,3.9-0.6,5.7-0.6c2.4,0,4.7,0.4,6.9,1.1
		c2.1,0.7,4,1.8,5.5,3.3c1.5,1.4,2.8,3.2,3.7,5.3c0.9,2.1,1.3,4.5,1.3,7.2v22.8c0,1,0.1,1.8,0.4,2.5c0.3,0.6,0.8,0.9,1.7,0.9
		c0.8,0,1.5-0.2,1.9-0.7s0.8-1.1,1.1-2.1l1.4,0.5c-0.7,1.6-1.4,2.8-2.3,3.7c-0.9,0.8-2.3,1.3-4.2,1.3c-2.4,0-4.3-0.6-5.6-1.7
		C128.8,216.8,128.1,215.3,128.1,213.4z M128.2,192.5c-0.8-0.1-1.6-0.2-2.3-0.2c-0.7,0-1.4,0-2.1,0c-2.4,0-4.6,0.1-6.7,0.4
		c-2.1,0.3-4,0.8-5.5,1.7c-1.6,0.9-2.8,2.2-3.7,4c-0.9,1.8-1.4,4.1-1.4,7.2c0,3.7,0.7,6.7,2.1,8.9c1.4,2.2,4.1,3.3,8,3.3
		c3.2,0,5.8-1,7.7-3c1.9-2,3.2-4.7,3.8-8L128.2,192.5z"/>
	<path d="M185.2,149.7h1.6c0,2.7-0.2,5-0.5,6.7c-0.4,1.7-1.1,3-2.3,4c-1.2,1-2.9,1.7-5.1,2.2c-2.3,0.5-5.3,0.9-9.2,1.3
		c-3.1,0.3-5.8,1.1-8.1,2.4c-2.3,1.3-4.3,2.9-5.8,4.9c-1.6,2-2.8,4.2-3.6,6.7c-0.8,2.5-1.2,5.2-1.2,7.9l0.5-0.5
		c0.6-1.5,1.5-3,2.6-4.4c1.2-1.4,2.5-2.6,4.1-3.6c1.6-1,3.3-1.8,5.1-2.4c1.8-0.6,3.7-0.9,5.7-0.9c3.2,0,6.1,0.5,8.7,1.5
		c2.7,1,5,2.4,6.9,4.4c1.9,1.9,3.5,4.3,4.6,7.2c1.1,2.9,1.7,6.3,1.7,10.1c0,3.8-0.6,7.2-1.7,10c-1.1,2.9-2.6,5.3-4.6,7.3
		c-1.9,2-4.2,3.4-6.9,4.4c-2.7,1-5.6,1.5-8.7,1.5c-4.4,0-8-0.8-10.8-2.4c-2.8-1.6-5.1-3.7-6.7-6.4c-1.7-2.6-2.8-5.7-3.4-9.2
		c-0.6-3.5-1-7.1-1-10.8c0-1.7,0-3.7,0.1-6c0.1-2.3,0.4-4.7,0.8-7.2c0.5-2.5,1.2-5,2.1-7.4c1-2.4,2.3-4.6,4-6.7c1.7-2,3.8-3.7,6.3-5
		c2.5-1.3,5.6-2.2,9.2-2.5c2.3-0.2,4.4-0.4,6.2-0.5c1.8-0.2,3.4-0.5,4.6-0.9c1.3-0.4,2.3-1.1,3.1-2
		C184.4,152.5,184.9,151.3,185.2,149.7z M155.2,197.2c0,2.5,0.2,5,0.6,7.5c0.4,2.5,1.1,4.8,2.2,6.9c1,2.1,2.5,3.7,4.2,5
		c1.8,1.3,4,2,6.8,2c2.7,0,5-0.7,6.8-2c1.8-1.3,3.2-3,4.2-5c1-2.1,1.8-4.3,2.2-6.9c0.4-2.5,0.6-5,0.6-7.5c0-2.6-0.2-5.1-0.6-7.6
		c-0.4-2.5-1.1-4.8-2.2-6.9c-1-2.1-2.5-3.7-4.2-5c-1.8-1.3-4-1.9-6.8-1.9c-2.7,0-5,0.6-6.8,1.9s-3.2,2.9-4.2,5
		c-1,2.1-1.8,4.3-2.2,6.9C155.4,192.1,155.2,194.6,155.2,197.2z"/>
	<path d="M198.5,243.9v-1.5l3.6-0.4c1.1-0.2,1.7-0.6,1.8-1.2v-62c0-0.5-0.3-0.9-1-1.2c-0.7-0.3-1.4-0.5-2.1-0.6
		c-0.9-0.2-1.9-0.3-3.1-0.3v-1.8l13.8-0.4v6.8c1.2-1.5,2.9-3,5.1-4.3c2.2-1.3,5.3-2,9.1-2c7.1,0,12.3,2,15.5,6.1
		c3.3,4.1,4.9,9.6,4.9,16.6c0,7-1.6,12.6-4.9,16.6c-3.3,4-8.5,6.1-15.5,6.1c-3.8,0-6.8-0.7-9.1-2c-2.2-1.3-3.9-2.8-5.1-4.3v26.7
		c0.1,0.6,0.7,1,1.8,1.2l3.6,0.4v1.5H198.5z M211.4,209.3c0.6,1.6,1.5,3,2.7,4.3c1.1,1.2,2.4,2.2,4.1,3.1c1.7,0.9,3.8,1.3,6.4,1.3
		c4.7,0,8.1-1.7,10.2-5.2c2.1-3.5,3.2-8.5,3.2-15.1c0-6.6-1-11.7-3.1-15.1c-2.1-3.5-5.5-5.2-10.3-5.2c-2.6,0-4.8,0.4-6.5,1.3
		c-1.7,0.9-3,1.9-4,2.9c-1.2,1.3-2.1,2.8-2.8,4.4V209.3z"/>
	<path d="M283.7,176.4v-1.5H302v1.5l-3.6,0.4c-1.1,0.2-1.7,0.6-1.8,1.2v38.4c0.1,0.6,0.7,1,1.8,1.2l3.6,0.4v1.5h-18.3V218l3.6-0.4
		c1.1-0.2,1.7-0.6,1.8-1.2v-30.4l-22.4,26.7v3.8c0.1,0.6,0.7,1,1.8,1.2l3.6,0.4v1.5h-18.3V218l3.6-0.4c1.1-0.2,1.7-0.6,1.8-1.2V178
		c-0.2-0.6-0.8-1-1.9-1.2l-3.5-0.4v-1.5H272v1.5l-3.6,0.4c-1.1,0.2-1.7,0.6-1.8,1.2v31.4l22.4-26.8V178c-0.2-0.6-0.8-1-1.9-1.2
		L283.7,176.4z"/>
	<path d="M345.1,174c1.2,0,2.2,0.4,3.1,1.2c0.9,0.8,1.3,1.8,1.3,2.9c0,1.1-0.4,2.1-1.2,2.9c-0.8,0.8-1.8,1.2-3,1.2
		c-0.8,0-1.5-0.2-2.2-0.7s-1.2-1.1-1.7-1.9c-0.4-0.5-0.7-0.8-0.9-0.8c-0.2,0-0.5,0.2-0.7,0.5c-0.2,0.3-0.6,0.8-1.1,1.5l-5.8,8.4
		c-0.2,0.4-0.5,0.8-0.8,1.1c2.4,0.1,4.4,0.7,5.9,2c1.5,1.2,2.7,2.8,3.7,4.6c1,1.8,1.9,3.8,2.6,6c0.7,2.1,1.5,4.2,2.3,6.1
		c1,2.1,1.7,3.7,2.3,4.9c0.6,1.2,1.2,2.1,1.7,2.7c0.5,0.6,1.1,1,1.8,1.1c0.7,0.1,1.6,0.3,2.6,0.4v1.5h-8.2c-1.5,0-2.8-0.5-3.8-1.6
		c-1.1-1.1-2.2-3.2-3.5-6.3c-1.1-3-2.2-5.7-3.1-8.1c-1-2.4-1.9-4.5-2.8-6.2c-0.9-1.8-1.9-3.1-2.9-4.1c-1-1-2.2-1.4-3.6-1.4h-5.4
		v24.6c0.1,0.6,0.7,1,1.8,1.2l3.6,0.4v1.5h-18.3V218l3.5-0.4c1.1-0.2,1.7-0.6,1.9-1.2V178c-0.2-0.6-0.8-1-1.9-1.2l-3.5-0.4v-1.5H327
		v1.5l-3.6,0.4c-1.1,0.2-1.7,0.6-1.8,1.2v12.2h6.5c0.7,0,1.3-0.1,1.7-0.4c0.4-0.3,1-0.9,1.6-1.8l6.2-8.9c1-1.4,2.1-2.6,3.2-3.6
		C342,174.4,343.4,174,345.1,174z"/>
	<path d="M389.4,213.4v-0.5c-1.2,2.4-2.8,4.2-4.9,5.4c-2.1,1.2-4.7,1.8-7.9,1.8c-2.5,0-4.8-0.2-6.9-0.7c-2.1-0.4-3.9-1.2-5.4-2.3
		c-1.5-1.1-2.6-2.5-3.5-4.4c-0.8-1.8-1.3-4.2-1.3-7c0-3.4,0.8-6.1,2.5-8.2c1.7-2.1,3.8-3.6,6.3-4.7c2.5-1.1,5.3-1.8,8.3-2.1
		c3-0.3,5.8-0.5,8.4-0.5c0.7,0,1.3,0,2.1,0c0.7,0,1.5,0.1,2.3,0.2v-0.4c0-4.5-0.7-7.9-2-10.4c-1.3-2.5-3.9-3.7-7.8-3.7
		c-0.7,0-1.6,0-2.7,0.1c-1.1,0.1-2.2,0.2-3.2,0.5c-1,0.3-1.9,0.6-2.6,1.1c-0.7,0.5-1.1,1.1-1.1,2c0,0.5,0.1,1,0.4,1.5
		c0.3,0.5,0.4,1.1,0.4,1.7c0,1.4-0.4,2.3-1.2,2.9c-0.8,0.6-1.8,0.8-2.9,0.8c-1.1,0-2.1-0.4-2.9-1.1c-0.8-0.7-1.2-1.8-1.2-3.1
		s0.5-2.6,1.6-3.6c1.1-1,2.4-1.9,4.1-2.6c1.7-0.7,3.5-1.3,5.5-1.7c2-0.4,3.9-0.6,5.7-0.6c2.4,0,4.7,0.4,6.9,1.1
		c2.1,0.7,4,1.8,5.5,3.3c1.5,1.4,2.8,3.2,3.7,5.3c0.9,2.1,1.3,4.5,1.3,7.2v22.8c0,1,0.1,1.8,0.4,2.5c0.3,0.6,0.8,0.9,1.7,0.9
		c0.8,0,1.5-0.2,1.9-0.7c0.4-0.4,0.8-1.1,1.1-2.1l1.4,0.5c-0.7,1.6-1.4,2.8-2.3,3.7c-0.9,0.8-2.3,1.3-4.2,1.3
		c-2.4,0-4.3-0.6-5.6-1.7C390.1,216.8,389.4,215.3,389.4,213.4z M389.5,192.5c-0.8-0.1-1.6-0.2-2.3-0.2c-0.7,0-1.4,0-2.1,0
		c-2.4,0-4.6,0.1-6.7,0.4c-2.1,0.3-4,0.8-5.5,1.7c-1.6,0.9-2.8,2.2-3.7,4c-0.9,1.8-1.4,4.1-1.4,7.2c0,3.7,0.7,6.7,2.1,8.9
		c1.4,2.2,4.1,3.3,8,3.3c3.2,0,5.8-1,7.7-3c1.9-2,3.2-4.7,3.8-8L389.5,192.5z"/>
	<path d="M460.3,176.8v39.5c0.1,0.6,0.7,1,1.8,1.2l3.6,0.4v1.5h-18.3V218l3.6-0.4c1.1-0.1,1.7-0.4,1.8-1.2v-39.5h-8
		c-0.8,0-1.6,0.6-2.5,1.8c-0.9,1.2-1.7,2.6-2.4,4.1c-0.8,1.8-1.7,3.8-2.5,6H435l0.9-13.8h41.2l0.9,13.8h-2.3c-0.8-2.2-1.7-4.2-2.5-6
		c-0.8-1.6-1.6-3-2.4-4.1c-0.8-1.2-1.6-1.7-2.4-1.7H460.3z"/>
	<path d="M506.2,217.5v2c-3.2,0-6.1-0.5-8.7-1.5c-2.7-1-5-2.5-6.9-4.4c-1.9-2-3.5-4.4-4.6-7.3c-1.1-2.9-1.7-6.2-1.7-10
		c0-3.9,0.5-7.2,1.6-10.1c1-2.9,2.5-5.3,4.3-7.2c1.8-1.9,4-3.4,6.5-4.4c2.5-1,5.3-1.5,8.2-1.5c2.7,0,5.3,0.5,7.8,1.4
		c2.5,0.9,4.6,2.3,6.5,4c1.8,1.8,3.3,3.9,4.4,6.3c1.1,2.5,1.7,5.3,1.7,8.3h-32.8c-0.1,0.5-0.1,1-0.1,1.5c0,0.5,0,1.1,0,1.6
		c0,3.2,0.2,6.1,0.5,8.7c0.4,2.6,1,4.8,2,6.7s2.4,3.3,4.2,4.3C500.9,217,503.3,217.5,506.2,217.5z M492.5,190.9h23.3
		c0.3-2,0.3-4,0-5.9c-0.3-1.9-0.9-3.6-1.8-5.1c-0.9-1.5-2.1-2.7-3.6-3.6s-3.4-1.3-5.6-1.3c-2.3,0-4.1,0.4-5.6,1.1
		c-1.5,0.7-2.7,1.8-3.7,3.2c-1,1.4-1.7,3-2.1,5C493,186.3,492.7,188.5,492.5,190.9z M506.2,219.5v-2c2.1,0,4-0.3,5.8-1
		c1.8-0.7,3.3-1.6,4.8-2.7c1.4-1.2,2.7-2.5,3.8-4.1c1.1-1.5,2-3.2,2.8-4.9l1.8,0.8c-0.7,1.8-1.7,3.5-2.8,5.2
		c-1.2,1.7-2.5,3.2-4.1,4.5c-1.6,1.3-3.4,2.3-5.4,3.1S508.6,219.5,506.2,219.5z"/>
	<path d="M567.8,174c1.2,0,2.2,0.4,3.1,1.2c0.9,0.8,1.3,1.8,1.3,2.9c0,1.1-0.4,2.1-1.2,2.9c-0.8,0.8-1.8,1.2-3,1.2
		c-0.8,0-1.5-0.2-2.2-0.7c-0.7-0.4-1.2-1.1-1.7-1.9c-0.4-0.5-0.7-0.8-0.9-0.8c-0.2,0-0.5,0.2-0.7,0.5c-0.2,0.3-0.6,0.8-1.1,1.5
		l-5.8,8.4c-0.2,0.4-0.5,0.8-0.8,1.1c2.4,0.1,4.4,0.7,5.9,2c1.5,1.2,2.7,2.8,3.7,4.6c1,1.8,1.9,3.8,2.6,6c0.7,2.1,1.5,4.2,2.3,6.1
		c1,2.1,1.7,3.7,2.3,4.9c0.6,1.2,1.2,2.1,1.7,2.7c0.5,0.6,1.1,1,1.8,1.1c0.7,0.1,1.6,0.3,2.6,0.4v1.5h-8.2c-1.5,0-2.8-0.5-3.8-1.6
		c-1.1-1.1-2.2-3.2-3.5-6.3c-1.1-3-2.2-5.7-3.1-8.1c-1-2.4-1.9-4.5-2.8-6.2c-0.9-1.8-1.9-3.1-2.9-4.1c-1-1-2.2-1.4-3.6-1.4h-5.4
		v24.6c0.1,0.6,0.7,1,1.8,1.2l3.6,0.4v1.5h-18.3V218l3.5-0.4c1.1-0.2,1.7-0.6,1.9-1.2V178c-0.2-0.6-0.8-1-1.9-1.2l-3.5-0.4v-1.5
		h18.3v1.5l-3.6,0.4c-1.1,0.2-1.7,0.6-1.8,1.2v12.2h6.5c0.7,0,1.3-0.1,1.7-0.4c0.4-0.3,1-0.9,1.6-1.8l6.2-8.9c1-1.4,2.1-2.6,3.2-3.6
		C564.7,174.4,566.1,174,567.8,174z"/>
	<path d="M619.4,206.5l1.9,0.6c-0.7,1.7-1.5,3.4-2.5,5c-1,1.6-2.2,3-3.5,4.1c-1.4,1.2-2.9,2.1-4.7,2.9c-1.8,0.7-3.7,1.1-5.9,1.1
		h-0.1c-3.1,0-6-0.5-8.8-1.5c-2.8-1-5.2-2.5-7.2-4.4c-2.1-2-3.7-4.4-4.9-7.3c-1.2-2.9-1.8-6.2-1.8-10c0-3.9,0.6-7.2,1.7-10.1
		c1.1-2.9,2.7-5.3,4.6-7.2c1.9-1.9,4.2-3.4,6.8-4.4c2.6-1,5.4-1.5,8.3-1.5c1.7,0,3.5,0.1,5.4,0.4c1.9,0.3,3.6,0.8,5.2,1.6
		c1.6,0.7,2.9,1.8,3.9,3.1c1,1.3,1.5,3,1.4,5c-0.1,1.5-0.6,2.8-1.3,3.9c-0.8,1-1.8,1.5-3.2,1.5c-1.5,0-2.8-0.4-3.6-1.2
		c-0.9-0.8-1.3-1.8-1.3-2.9c0-1,0.2-1.9,0.7-2.6s0.9-1.4,1.4-1.9c0.4-0.6,0.7-1.1,0.9-1.6c0.1-0.5-0.1-1-0.8-1.4
		c-1.1-0.8-2.2-1.3-3.5-1.5c-1.3-0.2-2.7-0.4-4.3-0.4c-2.6,0-4.8,0.5-6.6,1.5c-1.8,1-3.2,2.4-4.3,4.3c-1.1,1.8-1.8,4.1-2.3,6.7
		s-0.7,5.5-0.7,8.7c0,6.3,1.1,11.4,3.4,15.1c2.3,3.8,5.9,5.7,10.8,5.7c2,0,3.7-0.3,5.3-0.9s3-1.4,4.2-2.4c1.2-1,2.3-2.2,3.1-3.6
		C618.1,209.5,618.8,208,619.4,206.5z"/>
	<path d="M653.1,176.8v39.5c0.1,0.6,0.7,1,1.8,1.2l3.6,0.4v1.5h-18.3V218l3.6-0.4c1.1-0.1,1.7-0.4,1.8-1.2v-39.5h-8
		c-0.8,0-1.6,0.6-2.5,1.8c-0.9,1.2-1.7,2.6-2.4,4.1c-0.8,1.8-1.7,3.8-2.5,6h-2.3l0.9-13.8H670l0.9,13.8h-2.3c-0.8-2.2-1.7-4.2-2.5-6
		c-0.8-1.6-1.6-3-2.4-4.1c-0.8-1.2-1.6-1.7-2.4-1.7H653.1z"/>
</g>
</svg>
