<?xml version="1.0" encoding="utf-8"?>
<!-- Generator: Adobe Illustrator 22.1.0, SVG Export Plug-In . SVG Version: 6.00 Build 0)  -->
<svg version="1.1" id="Layer_1" xmlns="http://www.w3.org/2000/svg" xmlns:xlink="http://www.w3.org/1999/xlink" x="0px" y="0px"
	 viewBox="0 0 360 181" style="enable-background:new 0 0 360 181;" xml:space="preserve">
<g>
	<g>
		<path d="M19.3,55.4h0.9v10h-0.9L19,63.7c-0.2-0.9-0.6-1.5-1.4-2c-0.8-0.5-1.7-0.7-2.8-0.7H8.4v18c0.1,0.3,0.4,0.5,1,0.5l2.5,0.2
			v0.9H0.4v-0.9l2.5-0.2c0.6,0,0.9-0.2,1-0.6V47.3c-0.1-0.4-0.4-0.6-1-0.6l-2.5-0.2v-0.9h24.9l0.5,8.6h-0.9c-0.5-1.4-1-2.7-1.5-3.8
			c-0.3-0.7-0.5-1.2-0.7-1.6c-0.2-0.4-0.4-0.7-0.6-1.1c-0.2-0.3-0.4-0.6-0.5-0.8c-0.2-0.2-0.3-0.3-0.5-0.3H8.4v13.3h6.4
			c1.1,0,2-0.2,2.8-0.7c0.8-0.5,1.2-1.2,1.4-2L19.3,55.4z"/>
		<path d="M43.2,64.2c0.4,0,0.8,0,1.2,0c0.4,0,0.8,0,1.3,0.1v-0.2c0-2.5-0.4-4.4-1.1-5.8c-0.8-1.4-2.2-2.1-4.4-2.1
			c-0.4,0-0.9,0-1.5,0.1c-0.6,0-1.2,0.1-1.8,0.3c-0.6,0.1-1.1,0.4-1.5,0.6c-0.4,0.3-0.6,0.6-0.6,1.1c0,0.3,0.1,0.5,0.2,0.8
			c0.2,0.3,0.2,0.6,0.2,1c0,0.8-0.2,1.3-0.7,1.6c-0.5,0.3-1,0.5-1.6,0.5c-0.6,0-1.2-0.2-1.6-0.6c-0.5-0.4-0.7-1-0.7-1.8
			c0-0.8,0.3-1.4,0.9-2c0.6-0.6,1.4-1.1,2.3-1.5c0.9-0.4,2-0.7,3.1-0.9c1.1-0.2,2.2-0.3,3.2-0.3c1.4,0,2.6,0.2,3.9,0.6
			c1.2,0.4,2.2,1,3.1,1.8c0.9,0.8,1.5,1.8,2,2.9c0.5,1.2,0.8,2.5,0.8,4.1v12.8c0,0.6,0.1,1,0.2,1.4c0.1,0.3,0.5,0.5,0.9,0.5
			c0.5,0,0.8-0.1,1.1-0.4s0.5-0.6,0.6-1.2l0.8,0.3c-0.4,0.9-0.8,1.6-1.3,2c-0.5,0.5-1.3,0.7-2.4,0.7c-1.3,0-2.4-0.3-3.1-1
			c-0.8-0.6-1.1-1.5-1.1-2.5v-0.3c-0.7,1.3-1.6,2.3-2.7,3c-1.1,0.7-2.6,1-4.4,1c-1.4,0-2.7-0.1-3.8-0.4c-1.2-0.2-2.2-0.7-3-1.3
			c-0.8-0.6-1.5-1.4-2-2.5c-0.5-1-0.7-2.3-0.7-3.9c0-1.9,0.5-3.4,1.4-4.6c0.9-1.1,2.1-2,3.5-2.6c1.4-0.6,3-1,4.6-1.2
			C40.2,64.3,41.8,64.2,43.2,64.2z M45.6,73.5l0-8c-0.5-0.1-0.9-0.1-1.3-0.1c-0.4,0-0.8,0-1.2,0c-1.3,0-2.6,0.1-3.8,0.2
			c-1.2,0.1-2.2,0.5-3.1,1c-0.9,0.5-1.6,1.2-2.1,2.2c-0.5,1-0.8,2.3-0.8,4c0,2.1,0.4,3.7,1.2,5s2.3,1.9,4.5,1.9
			c1.8,0,3.2-0.6,4.3-1.7C44.6,76.9,45.3,75.4,45.6,73.5z"/>
		<path d="M60.2,45.7c0-0.3-0.2-0.5-0.6-0.7c-0.4-0.1-0.9-0.3-1.4-0.3c-0.6-0.1-1.3-0.1-2-0.1v-1l8.3-0.2v15.9
			c0.7-0.9,1.6-1.7,2.9-2.4s2.9-1.1,5.1-1.1c4,0,6.9,1.1,8.7,3.4c1.8,2.3,2.8,5.4,2.8,9.3c0,3.9-0.9,7-2.8,9.3
			c-1.8,2.3-4.7,3.4-8.7,3.4c-1.1,0-2.1-0.1-3-0.4c-0.9-0.2-1.7-0.5-2.4-0.9c-0.7-0.4-1.2-0.8-1.7-1.3c-0.5-0.5-0.9-0.9-1.1-1.4
			l-3.5,3.5h-0.5V45.7z M64.4,74.9c0.3,0.9,0.8,1.7,1.5,2.4c0.6,0.7,1.4,1.2,2.3,1.7c0.9,0.5,2.1,0.7,3.6,0.7c2.7,0,4.6-1,5.8-2.9
			c1.2-1.9,1.8-4.8,1.8-8.5c0-3.7-0.6-6.5-1.7-8.5c-1.1-2-3.1-2.9-5.8-2.9c-1.5,0-2.7,0.2-3.6,0.8c-1,0.5-1.7,1.1-2.2,1.6
			c-0.7,0.7-1.2,1.6-1.6,2.5V74.9z"/>
		<path d="M103.4,55.3c0.7,0,1.3,0.1,1.9,0.4c0.6,0.2,1.2,0.5,1.7,0.9c0.5,0.4,0.9,0.8,1.2,1.3c0.3,0.5,0.5,1.1,0.5,1.8
			c0,0.5-0.2,1-0.5,1.6c-0.4,0.6-1,0.8-1.9,0.8c-0.6,0-1.1-0.2-1.5-0.5c-0.4-0.4-0.6-0.8-0.6-1.4c0-0.4,0-0.8,0.2-1s0.2-0.6,0.2-1
			c0-0.7-0.2-1.1-0.8-1.3c-0.5-0.2-1-0.2-1.6-0.2c-1.3,0.1-2.3,0.3-3.2,0.8c-0.9,0.5-1.5,1-2.1,1.6c-0.5,0.5-0.9,1.1-1.1,1.5
			c-0.2,0.5-0.4,0.8-0.4,0.9v17.5c0,0.3,0.4,0.5,1,0.6l2,0.2v0.9H88.2v-0.9l2-0.2c0.6,0,0.9-0.2,1-0.6V57.7c0-0.3-0.2-0.5-0.5-0.7
			c-0.4-0.1-0.8-0.3-1.2-0.3c-0.5-0.1-1.1-0.1-1.8-0.1v-1l7.8-0.2v3.8c0.9-1.3,2.1-2.3,3.5-2.9C100.3,55.6,101.8,55.3,103.4,55.3z"
			/>
		<path d="M112,55.6l7.8-0.2v23.5c0,0.3,0.4,0.5,1,0.6l2,0.2v0.9h-10.2v-0.9l2-0.2c0.6,0,0.9-0.2,1-0.6V57.7c0-0.3-0.2-0.5-0.5-0.7
			c-0.4-0.1-0.8-0.3-1.2-0.3c-0.5-0.1-1.1-0.1-1.8-0.1V55.6z M114.9,48.6c0-0.8,0.3-1.4,0.8-1.9c0.5-0.5,1.2-0.8,1.9-0.8
			c0.7,0,1.4,0.3,1.9,0.8c0.5,0.5,0.8,1.2,0.8,1.9c0,0.7-0.3,1.4-0.8,1.9c-0.5,0.5-1.2,0.8-1.9,0.8c-0.8,0-1.4-0.3-1.9-0.8
			C115.2,50,114.9,49.4,114.9,48.6z"/>
		<path d="M143.5,78.4l-7.8-10.8l-1.8,1.5v9.8c0,0.3,0.4,0.5,1,0.6l2,0.2v0.9h-10.2v-0.9l2-0.2c0.6,0,0.9-0.2,1-0.6V45.7
			c0-0.3-0.2-0.5-0.5-0.7c-0.4-0.1-0.8-0.3-1.2-0.3c-0.5-0.1-1.1-0.1-1.8-0.1v-1l7.8-0.2v24.2l10-9.1c0.4-0.4,0.6-0.8,0.5-1.1
			c-0.1-0.4-0.4-0.6-0.9-0.7l-1.6-0.1v-0.9h8.4v0.9l-1.3,0.2c-0.5,0.1-1.1,0.3-1.7,0.7c-0.6,0.4-1.1,0.7-1.4,1l-7.1,6.5l9.9,13.6
			c0.3,0.3,0.5,0.6,0.9,0.8c0.3,0.2,0.8,0.3,1.3,0.4l1.2,0.1v0.9h-10.2v-0.9l1.1-0.1C143.9,79.5,144.1,79.1,143.5,78.4z"/>
		<path d="M170.2,64.2c0.4,0,0.8,0,1.1,0c0.4,0,0.8,0,1.3,0.1v-0.2c0-2.5-0.4-4.4-1.1-5.8c-0.7-1.4-2.2-2.1-4.4-2.1
			c-0.4,0-0.9,0-1.5,0.1s-1.2,0.1-1.8,0.3c-0.6,0.1-1.1,0.4-1.5,0.6c-0.4,0.3-0.6,0.6-0.6,1.1c0,0.3,0.1,0.5,0.2,0.8
			c0.2,0.3,0.2,0.6,0.2,1c0,0.8-0.2,1.3-0.7,1.6c-0.4,0.3-1,0.5-1.6,0.5s-1.2-0.2-1.6-0.6c-0.5-0.4-0.7-1-0.7-1.8
			c0-0.8,0.3-1.4,0.9-2c0.6-0.6,1.4-1.1,2.3-1.5s2-0.7,3.1-0.9c1.1-0.2,2.2-0.3,3.2-0.3c1.4,0,2.7,0.2,3.8,0.6
			c1.2,0.4,2.2,1,3.1,1.8c0.9,0.8,1.5,1.8,2,2.9c0.5,1.2,0.8,2.5,0.8,4.1v12.8c0,0.6,0.1,1,0.2,1.4c0.2,0.3,0.5,0.5,0.9,0.5
			s0.8-0.1,1.1-0.4s0.5-0.6,0.6-1.2l0.8,0.3c-0.4,0.9-0.8,1.6-1.3,2c-0.5,0.5-1.3,0.7-2.4,0.7c-1.3,0-2.4-0.3-3.2-1
			c-0.8-0.6-1.1-1.5-1.1-2.5v-0.3c-0.7,1.3-1.6,2.3-2.7,3c-1.1,0.7-2.6,1-4.4,1c-1.4,0-2.7-0.1-3.8-0.4c-1.2-0.2-2.2-0.7-3-1.3
			c-0.8-0.6-1.5-1.4-2-2.5c-0.5-1-0.7-2.3-0.7-3.9c0-1.9,0.5-3.4,1.4-4.6c0.9-1.1,2.1-2,3.5-2.6c1.4-0.6,3-1,4.6-1.2
			C167.2,64.3,168.7,64.2,170.2,64.2z M172.6,73.5l0-8c-0.5-0.1-0.9-0.1-1.3-0.1c-0.4,0-0.8,0-1.1,0c-1.3,0-2.6,0.1-3.8,0.2
			s-2.2,0.5-3.1,1c-0.9,0.5-1.6,1.2-2.1,2.2c-0.5,1-0.8,2.3-0.8,4c0,2.1,0.4,3.7,1.2,5c0.8,1.2,2.3,1.9,4.5,1.9
			c1.8,0,3.2-0.6,4.3-1.7C171.6,76.9,172.3,75.4,172.6,73.5z"/>
		<path d="M213,79c-0.3,0.3-0.7,0.6-1.1,0.8c-0.4,0.2-0.8,0.4-1.2,0.6s-0.9,0.2-1.3,0.2c-1.7,0-3.1-0.2-4-0.6c-1-0.4-1.7-1-2.1-1.7
			c-0.4-0.7-0.7-1.6-0.8-2.7c-0.1-1-0.1-2.2-0.1-3.5V56.7h-4.2v-1.1h0.8c0.7,0,1.5-0.2,2.2-0.6c0.8-0.4,1.5-0.9,2.1-1.5
			c0.6-0.6,1.1-1.3,1.5-2.1c0.4-0.8,0.6-1.6,0.6-2.4h1.2v6.5h7.3v1.1h-7.3V74c0,0.8,0,1.5,0.1,2.2c0,0.6,0.2,1.2,0.4,1.7
			c0.2,0.5,0.5,0.9,0.9,1.1c0.4,0.3,1,0.4,1.8,0.4c0.3,0,0.6-0.1,0.9-0.2c0.3-0.1,0.6-0.3,0.8-0.4s0.5-0.4,0.8-0.6L213,79z"/>
		<path d="M229.1,80v1.1c-1.8,0-3.4-0.3-4.9-0.8c-1.5-0.5-2.8-1.4-3.9-2.5c-1.1-1.1-1.9-2.5-2.5-4.1c-0.6-1.6-0.9-3.5-0.9-5.6
			c0-2.2,0.3-4.1,0.9-5.7c0.6-1.6,1.4-3,2.4-4.1c1-1.1,2.2-1.9,3.7-2.4c1.4-0.6,2.9-0.8,4.6-0.8c1.5,0,3,0.3,4.4,0.8
			c1.4,0.5,2.6,1.3,3.6,2.2c1,1,1.9,2.2,2.5,3.6c0.6,1.4,0.9,2.9,0.9,4.7h-18.3c0,0.3-0.1,0.5-0.1,0.9c0,0.3,0,0.6,0,0.9
			c0,1.8,0.1,3.4,0.3,4.9c0.2,1.5,0.6,2.7,1.1,3.8c0.5,1,1.3,1.9,2.3,2.4C226.2,79.7,227.5,80,229.1,80z M221.5,65.1h13
			c0.2-1.1,0.2-2.2,0-3.3c-0.2-1.1-0.5-2-1-2.9c-0.5-0.8-1.2-1.5-2-2c-0.8-0.5-1.9-0.8-3.1-0.8c-1.3,0-2.3,0.2-3.1,0.6
			c-0.8,0.4-1.5,1-2,1.8c-0.5,0.8-0.9,1.7-1.2,2.8C221.8,62.5,221.6,63.7,221.5,65.1z M229.1,81.1V80c1.2,0,2.2-0.2,3.2-0.5
			c1-0.4,1.9-0.9,2.7-1.5c0.8-0.7,1.5-1.4,2.1-2.3c0.6-0.9,1.1-1.8,1.6-2.8l1,0.5c-0.4,1-0.9,2-1.6,2.9c-0.7,0.9-1.4,1.8-2.3,2.5
			c-0.9,0.7-1.9,1.3-3,1.7C231.8,80.9,230.5,81.1,229.1,81.1z"/>
		<path d="M259.2,67l7.8,10.6c0.7,0.9,1.4,1.5,2,1.7c0.7,0.2,1.2,0.3,1.5,0.4v0.9h-9.8v-0.9l1.5-0.2c0.8-0.1,0.8-0.6,0.2-1.5l-6-8.2
			l-5.8,6.9c-0.7,0.9-1.1,1.5-1,2s0.6,0.8,1.5,0.9l1.2,0.1v0.9h-8.2v-0.9c1.1,0,2-0.4,2.9-1.1c0.9-0.7,1.7-1.5,2.5-2.5l6.2-7.4
			l-7.5-10.4c-0.7-0.9-1.4-1.5-2-1.7c-0.7-0.2-1.2-0.3-1.5-0.4v-0.9h9.8v0.9l-1.5,0.2c-0.8,0.1-0.8,0.6-0.2,1.5l5.8,8l5.6-6.6
			c0.7-0.9,1-1.5,1-2s-0.6-0.8-1.5-0.9l-1.2-0.1v-0.9h8.2v0.9c-1.1,0-2,0.4-2.9,1.1c-0.9,0.7-1.7,1.5-2.5,2.4L259.2,67z"/>
		<path d="M287.8,79c-0.3,0.3-0.7,0.6-1.1,0.8c-0.4,0.2-0.8,0.4-1.2,0.6s-0.9,0.2-1.3,0.2c-1.7,0-3.1-0.2-4-0.6
			c-1-0.4-1.7-1-2.1-1.7c-0.4-0.7-0.7-1.6-0.8-2.7c-0.1-1-0.1-2.2-0.1-3.5V56.7h-4.2v-1.1h0.8c0.7,0,1.5-0.2,2.2-0.6
			c0.8-0.4,1.5-0.9,2.1-1.5c0.6-0.6,1.1-1.3,1.5-2.1c0.4-0.8,0.6-1.6,0.6-2.4h1.2v6.5h7.3v1.1h-7.3V74c0,0.8,0,1.5,0.1,2.2
			c0,0.6,0.2,1.2,0.4,1.7c0.2,0.5,0.5,0.9,0.9,1.1c0.4,0.3,1,0.4,1.8,0.4c0.3,0,0.6-0.1,0.9-0.2c0.3-0.1,0.6-0.3,0.8-0.4
			s0.5-0.4,0.8-0.6L287.8,79z"/>
	</g>
</g>
<g>
	<g>
		<path d="M34.5,122.6c0,2.1-0.4,3.9-1,5.4c-0.7,1.6-1.7,2.8-2.9,3.9s-2.7,1.8-4.5,2.3c-1.7,0.5-3.6,0.8-5.6,0.8h-0.8v3.8
			c0.1,0.4,0.4,0.6,1,0.7l2.5,0.2v0.8H11.6v-0.8l2.5-0.2c0.6,0,0.9-0.2,1-0.7V135h-0.8c-2,0-3.9-0.3-5.6-0.8
			c-1.7-0.5-3.2-1.3-4.5-2.3S2,129.6,1.4,128c-0.7-1.5-1.1-3.4-1.1-5.4v0c0-2.1,0.4-3.9,1.1-5.4c0.7-1.5,1.7-2.8,2.9-3.9
			c1.2-1,2.7-1.8,4.5-2.3c1.7-0.5,3.6-0.8,5.6-0.8h0.8v-2.8c-0.1-0.4-0.4-0.6-1-0.6l-2.5-0.2v-0.9h11.5v0.9l-2.5,0.2
			c-0.6,0-0.9,0.2-1,0.6v2.8h0.8c2,0,3.9,0.3,5.6,0.8c1.7,0.5,3.2,1.3,4.5,2.3s2.2,2.3,2.9,3.9C34.1,118.6,34.5,120.4,34.5,122.6
			L34.5,122.6z M5,122.5c0,1.6,0.2,3.1,0.5,4.5c0.3,1.4,0.8,2.6,1.5,3.6c0.7,1,1.6,1.8,2.6,2.4c1.1,0.6,2.4,0.9,3.9,0.9h1.5v-22.8
			h-1.5c-1.5,0-2.8,0.3-3.9,0.9c-1.1,0.6-2,1.4-2.6,2.4c-0.7,1-1.2,2.2-1.5,3.6C5.2,119.4,5,120.9,5,122.5z M19.6,111.2v22.8h1.6
			c1.5,0,2.8-0.3,3.9-0.9c1.1-0.6,2-1.4,2.6-2.4c0.7-1,1.2-2.2,1.5-3.6c0.3-1.4,0.5-2.9,0.5-4.5s-0.2-3.1-0.5-4.5
			c-0.3-1.4-0.8-2.6-1.5-3.6c-0.7-1-1.6-1.8-2.6-2.4c-1.1-0.6-2.4-0.8-3.9-0.8H19.6z"/>
		<path d="M55.8,137.2v-0.3c-0.7,1.3-1.6,2.3-2.7,3c-1.1,0.7-2.6,1-4.4,1c-1.4,0-2.7-0.1-3.8-0.4c-1.2-0.2-2.2-0.7-3-1.3
			c-0.8-0.6-1.5-1.4-2-2.5c-0.5-1-0.7-2.3-0.7-3.9c0-1.9,0.5-3.4,1.4-4.6c0.9-1.1,2.1-2,3.5-2.6c1.4-0.6,3-1,4.6-1.2
			c1.7-0.2,3.2-0.3,4.7-0.3c0.4,0,0.8,0,1.2,0c0.4,0,0.8,0,1.3,0.1v-0.2c0-2.5-0.4-4.4-1.1-5.8s-2.2-2.1-4.4-2.1
			c-0.4,0-0.9,0-1.5,0.1c-0.6,0-1.2,0.1-1.8,0.3c-0.6,0.1-1.1,0.4-1.5,0.6c-0.4,0.3-0.6,0.6-0.6,1.1c0,0.3,0.1,0.5,0.2,0.8
			c0.2,0.3,0.2,0.6,0.2,1c0,0.8-0.2,1.3-0.7,1.6c-0.5,0.3-1,0.5-1.6,0.5c-0.6,0-1.2-0.2-1.6-0.6c-0.5-0.4-0.7-1-0.7-1.8
			s0.3-1.4,0.9-2c0.6-0.6,1.4-1.1,2.3-1.5c0.9-0.4,2-0.7,3.1-0.9c1.1-0.2,2.2-0.3,3.2-0.3c1.4,0,2.6,0.2,3.9,0.6
			c1.2,0.4,2.2,1,3.1,1.8c0.9,0.8,1.5,1.8,2,2.9c0.5,1.2,0.8,2.5,0.8,4.1v12.8c0,0.6,0.1,1,0.2,1.4s0.5,0.5,0.9,0.5
			c0.5,0,0.8-0.1,1.1-0.4s0.5-0.6,0.6-1.2l0.8,0.3c-0.4,0.9-0.8,1.6-1.3,2c-0.5,0.5-1.3,0.7-2.4,0.7c-1.3,0-2.4-0.3-3.1-1
			C56.2,139.1,55.8,138.2,55.8,137.2z M55.9,125.5c-0.5-0.1-0.9-0.1-1.3-0.1c-0.4,0-0.8,0-1.2,0c-1.3,0-2.6,0.1-3.8,0.2
			c-1.2,0.2-2.2,0.5-3.1,1c-0.9,0.5-1.6,1.2-2.1,2.2c-0.5,1-0.8,2.3-0.8,4c0,2.1,0.4,3.7,1.2,5s2.3,1.9,4.5,1.9
			c1.8,0,3.2-0.6,4.3-1.7c1.1-1.1,1.8-2.6,2.1-4.5L55.9,125.5z"/>
		<path d="M87.8,101.5h0.9c0,1.5-0.1,2.8-0.3,3.7s-0.6,1.7-1.3,2.2s-1.6,1-2.9,1.2c-1.3,0.3-3,0.5-5.1,0.7c-1.7,0.2-3.2,0.6-4.6,1.3
			c-1.3,0.7-2.4,1.7-3.3,2.8c-0.9,1.1-1.5,2.4-2,3.8c-0.5,1.4-0.7,2.9-0.7,4.4l0.3-0.3c0.3-0.9,0.8-1.7,1.5-2.5
			c0.6-0.8,1.4-1.5,2.3-2c0.9-0.6,1.8-1,2.9-1.4c1-0.3,2.1-0.5,3.2-0.5c1.8,0,3.4,0.3,4.9,0.8c1.5,0.5,2.8,1.4,3.9,2.4
			c1.1,1.1,1.9,2.4,2.5,4.1c0.6,1.6,0.9,3.5,0.9,5.7c0,2.1-0.3,4-0.9,5.6c-0.6,1.6-1.5,3-2.5,4.1c-1.1,1.1-2.4,1.9-3.9,2.5
			c-1.5,0.6-3.1,0.8-4.9,0.8c-2.5,0-4.5-0.5-6.1-1.4c-1.6-0.9-2.8-2.1-3.8-3.6c-0.9-1.5-1.6-3.2-1.9-5.1c-0.4-1.9-0.5-4-0.6-6.1
			c0-1,0-2.1,0.1-3.4c0-1.3,0.2-2.6,0.5-4c0.3-1.4,0.7-2.8,1.2-4.1c0.5-1.4,1.3-2.6,2.2-3.7c0.9-1.1,2.1-2.1,3.5-2.8
			c1.4-0.8,3.1-1.2,5.2-1.4c1.3-0.1,2.5-0.2,3.5-0.3c1-0.1,1.9-0.3,2.6-0.5c0.7-0.2,1.3-0.6,1.8-1.1
			C87.4,103.1,87.7,102.4,87.8,101.5z M71,128.1c0,1.4,0.1,2.8,0.4,4.2c0.2,1.4,0.6,2.7,1.2,3.8c0.6,1.2,1.4,2.1,2.4,2.8
			c1,0.7,2.3,1.1,3.8,1.1c1.5,0,2.8-0.4,3.8-1.1c1-0.7,1.8-1.7,2.4-2.8c0.6-1.2,1-2.4,1.2-3.8c0.2-1.4,0.4-2.8,0.4-4.2
			c0-1.4-0.1-2.9-0.4-4.3c-0.2-1.4-0.6-2.7-1.2-3.9c-0.6-1.1-1.4-2.1-2.4-2.8s-2.3-1.1-3.8-1.1c-1.5,0-2.8,0.4-3.8,1.1
			s-1.8,1.7-2.4,2.8c-0.6,1.1-1,2.4-1.2,3.9C71.1,125.2,71,126.7,71,128.1z"/>
		<path d="M95.2,154.2v-0.8l2-0.2c0.6-0.1,1-0.3,1-0.7v-34.8c0-0.3-0.2-0.5-0.5-0.7c-0.4-0.2-0.8-0.3-1.2-0.3
			c-0.5-0.1-1.1-0.1-1.8-0.1v-1l7.8-0.2v3.8c0.7-0.9,1.6-1.7,2.9-2.4c1.2-0.7,2.9-1.1,5.1-1.1c4,0,6.9,1.1,8.7,3.4
			c1.8,2.3,2.8,5.4,2.8,9.3c0,3.9-0.9,7-2.8,9.3c-1.8,2.3-4.7,3.4-8.7,3.4c-2.1,0-3.8-0.4-5.1-1.1s-2.2-1.6-2.9-2.4v14.9
			c0,0.3,0.4,0.6,1,0.7l2,0.2v0.8H95.2z M102.5,134.9c0.3,0.9,0.8,1.7,1.5,2.4c0.6,0.7,1.4,1.2,2.3,1.7c0.9,0.5,2.1,0.7,3.6,0.7
			c2.6,0,4.5-1,5.7-2.9c1.2-1.9,1.8-4.8,1.8-8.5c0-3.7-0.6-6.5-1.7-8.5c-1.1-2-3.1-2.9-5.8-2.9c-1.5,0-2.7,0.2-3.6,0.8
			c-0.9,0.5-1.7,1.1-2.2,1.7c-0.7,0.7-1.2,1.6-1.5,2.5V134.9z"/>
		<path d="M143,116.4v-0.9h10.2v0.9l-2,0.2c-0.6,0.1-1,0.3-1,0.6v21.5c0,0.3,0.4,0.5,1,0.6l2,0.2v0.9H143v-0.9l2-0.2
			c0.6-0.1,1-0.3,1-0.6v-17l-12.5,14.9v2.1c0,0.3,0.4,0.5,1,0.6l2,0.2v0.9h-10.2v-0.9l2-0.2c0.6-0.1,1-0.3,1-0.6v-21.5
			c-0.1-0.3-0.5-0.5-1-0.6l-2-0.2v-0.9h10.2v0.9l-2,0.2c-0.6,0.1-1,0.3-1,0.6v17.6l12.5-15v-2.6c-0.1-0.3-0.4-0.5-1-0.6L143,116.4z"
			/>
		<path d="M177.3,115.1c0.7,0,1.2,0.2,1.7,0.7c0.5,0.5,0.7,1,0.7,1.6c0,0.6-0.2,1.2-0.7,1.6c-0.5,0.5-1,0.7-1.7,0.7
			c-0.4,0-0.8-0.1-1.2-0.4s-0.7-0.6-0.9-1.1c-0.2-0.3-0.4-0.4-0.5-0.4c-0.1,0-0.3,0.1-0.4,0.3c-0.1,0.2-0.3,0.5-0.6,0.8l-3.2,4.7
			c-0.1,0.2-0.3,0.4-0.5,0.6c1.4,0,2.5,0.4,3.3,1.1c0.8,0.7,1.5,1.6,2.1,2.6c0.6,1,1,2.2,1.5,3.3c0.4,1.2,0.8,2.3,1.3,3.4
			c0.5,1.2,1,2.1,1.3,2.8c0.3,0.7,0.7,1.2,1,1.5c0.3,0.3,0.6,0.5,1,0.6c0.4,0.1,0.9,0.2,1.5,0.2v0.9h-4.6c-0.8,0-1.6-0.3-2.2-0.9
			c-0.6-0.6-1.2-1.8-2-3.6c-0.6-1.7-1.2-3.2-1.8-4.5c-0.5-1.3-1.1-2.5-1.6-3.5c-0.5-1-1.1-1.7-1.6-2.3c-0.6-0.5-1.3-0.8-2-0.8h-3
			v13.8c0,0.3,0.4,0.5,1,0.6l2,0.2v0.9H157v-0.9l2-0.2c0.6-0.1,1-0.3,1-0.6v-21.5c-0.1-0.3-0.5-0.5-1-0.6l-2-0.2v-0.9h10.2v0.9
			l-2,0.2c-0.6,0.1-1,0.3-1,0.6v6.9h3.7c0.4,0,0.7-0.1,0.9-0.2c0.2-0.2,0.5-0.5,0.9-1l3.4-5c0.6-0.8,1.2-1.5,1.8-2
			C175.6,115.4,176.4,115.1,177.3,115.1z"/>
		<path d="M202.2,137.2v-0.3c-0.7,1.3-1.6,2.3-2.7,3c-1.1,0.7-2.6,1-4.4,1c-1.4,0-2.7-0.1-3.8-0.4c-1.2-0.2-2.2-0.7-3-1.3
			c-0.8-0.6-1.5-1.4-2-2.5c-0.5-1-0.7-2.3-0.7-3.9c0-1.9,0.5-3.4,1.4-4.6c0.9-1.1,2.1-2,3.5-2.6c1.4-0.6,3-1,4.6-1.2
			c1.7-0.2,3.2-0.3,4.7-0.3c0.4,0,0.8,0,1.2,0c0.4,0,0.8,0,1.3,0.1v-0.2c0-2.5-0.4-4.4-1.1-5.8s-2.2-2.1-4.4-2.1
			c-0.4,0-0.9,0-1.5,0.1s-1.2,0.1-1.8,0.3c-0.6,0.1-1,0.4-1.5,0.6c-0.4,0.3-0.6,0.6-0.6,1.1c0,0.3,0.1,0.5,0.2,0.8
			c0.2,0.3,0.2,0.6,0.2,1c0,0.8-0.2,1.3-0.7,1.6c-0.4,0.3-1,0.5-1.6,0.5s-1.2-0.2-1.6-0.6c-0.4-0.4-0.7-1-0.7-1.8s0.3-1.4,0.9-2
			c0.6-0.6,1.4-1.1,2.3-1.5c0.9-0.4,2-0.7,3.1-0.9c1.1-0.2,2.2-0.3,3.2-0.3c1.4,0,2.7,0.2,3.8,0.6c1.2,0.4,2.2,1,3.1,1.8
			c0.9,0.8,1.5,1.8,2,2.9c0.5,1.2,0.8,2.5,0.8,4.1v12.8c0,0.6,0.1,1,0.2,1.4c0.2,0.3,0.5,0.5,0.9,0.5c0.5,0,0.8-0.1,1.1-0.4
			s0.5-0.6,0.6-1.2l0.8,0.3c-0.4,0.9-0.8,1.6-1.3,2c-0.5,0.5-1.3,0.7-2.4,0.7c-1.3,0-2.4-0.3-3.2-1S202.2,138.2,202.2,137.2z
			 M202.2,125.5c-0.5-0.1-0.9-0.1-1.3-0.1c-0.4,0-0.8,0-1.2,0c-1.3,0-2.6,0.1-3.8,0.2c-1.2,0.2-2.2,0.5-3.1,1
			c-0.9,0.5-1.6,1.2-2.1,2.2c-0.5,1-0.8,2.3-0.8,4c0,2.1,0.4,3.7,1.2,5s2.3,1.9,4.5,1.9c1.8,0,3.2-0.6,4.3-1.7
			c1.1-1.1,1.8-2.6,2.1-4.5L202.2,125.5z"/>
		<path d="M241.9,116.7v22.1c0,0.3,0.4,0.5,1,0.6l2,0.2v0.9h-10.2v-0.9l2-0.2c0.6,0,0.9-0.2,1-0.6v-22.1h-4.5c-0.4,0-0.9,0.3-1.4,1
			c-0.5,0.7-0.9,1.4-1.3,2.3c-0.5,1-0.9,2.1-1.4,3.4h-1.3l0.5-7.8h23.1l0.5,7.8h-1.3c-0.5-1.2-0.9-2.4-1.4-3.4
			c-0.4-0.9-0.9-1.7-1.4-2.3s-0.9-1-1.3-1H241.9z"/>
		<path d="M267.6,139.5v1.1c-1.8,0-3.4-0.3-4.9-0.8c-1.5-0.5-2.8-1.4-3.9-2.5s-1.9-2.5-2.5-4.1c-0.6-1.6-0.9-3.5-0.9-5.6
			c0-2.2,0.3-4.1,0.9-5.7c0.6-1.6,1.4-3,2.4-4.1c1-1.1,2.2-1.9,3.6-2.4c1.4-0.6,2.9-0.8,4.6-0.8c1.5,0,3,0.3,4.4,0.8
			c1.4,0.5,2.6,1.3,3.6,2.2c1,1,1.9,2.2,2.5,3.6s0.9,2.9,0.9,4.7h-18.4c0,0.3,0,0.5,0,0.9c0,0.3,0,0.6,0,0.9c0,1.8,0.1,3.4,0.3,4.9
			s0.6,2.7,1.1,3.8s1.3,1.9,2.4,2.4C264.6,139.2,266,139.5,267.6,139.5z M259.9,124.6H273c0.2-1.1,0.2-2.2,0-3.3
			c-0.2-1.1-0.5-2-1-2.8c-0.5-0.8-1.2-1.5-2-2s-1.9-0.8-3.1-0.8c-1.3,0-2.3,0.2-3.2,0.6c-0.8,0.4-1.5,1-2,1.8s-0.9,1.7-1.2,2.8
			S260,123.2,259.9,124.6z M267.6,140.6v-1.1c1.2,0,2.2-0.2,3.2-0.5s1.9-0.9,2.7-1.5c0.8-0.7,1.5-1.4,2.1-2.3
			c0.6-0.9,1.1-1.8,1.6-2.8l1,0.5c-0.4,1-0.9,2-1.6,2.9c-0.7,0.9-1.4,1.8-2.3,2.5c-0.9,0.7-1.9,1.3-3,1.7S269,140.6,267.6,140.6z"/>
		<path d="M302.1,115.1c0.7,0,1.2,0.2,1.7,0.7c0.5,0.5,0.7,1,0.7,1.6c0,0.6-0.2,1.2-0.7,1.6c-0.5,0.5-1,0.7-1.7,0.7
			c-0.4,0-0.8-0.1-1.2-0.4s-0.7-0.6-0.9-1.1c-0.2-0.3-0.4-0.4-0.5-0.4c-0.1,0-0.3,0.1-0.4,0.3c-0.1,0.2-0.3,0.5-0.6,0.8l-3.2,4.7
			c-0.1,0.2-0.3,0.4-0.5,0.6c1.4,0,2.5,0.4,3.3,1.1c0.8,0.7,1.5,1.6,2.1,2.6c0.6,1,1,2.2,1.5,3.3c0.4,1.2,0.8,2.3,1.3,3.4
			c0.5,1.2,1,2.1,1.3,2.8c0.3,0.7,0.7,1.2,1,1.5c0.3,0.3,0.6,0.5,1,0.6c0.4,0.1,0.9,0.2,1.5,0.2v0.9h-4.6c-0.8,0-1.6-0.3-2.2-0.9
			c-0.6-0.6-1.2-1.8-2-3.6c-0.6-1.7-1.2-3.2-1.8-4.5c-0.5-1.3-1.1-2.5-1.6-3.5c-0.5-1-1.1-1.7-1.6-2.3c-0.6-0.5-1.3-0.8-2-0.8h-3
			v13.8c0,0.3,0.4,0.5,1,0.6l2,0.2v0.9h-10.2v-0.9l2-0.2c0.6-0.1,1-0.3,1-0.6v-21.5c-0.1-0.3-0.5-0.5-1-0.6l-2-0.2v-0.9H292v0.9
			l-2,0.2c-0.6,0.1-1,0.3-1,0.6v6.9h3.7c0.4,0,0.7-0.1,0.9-0.2c0.2-0.2,0.5-0.5,0.9-1l3.5-5c0.6-0.8,1.2-1.5,1.8-2
			C300.4,115.4,301.2,115.1,302.1,115.1z"/>
		<path d="M331,133.3l1,0.3c-0.4,1-0.8,1.9-1.4,2.8s-1.2,1.7-2,2.3c-0.8,0.7-1.6,1.2-2.6,1.6c-1,0.4-2.1,0.6-3.3,0.6h0
			c-1.7,0-3.4-0.3-4.9-0.8c-1.6-0.5-2.9-1.4-4.1-2.5c-1.1-1.1-2.1-2.5-2.7-4.1c-0.7-1.6-1-3.5-1-5.6c0-2.2,0.3-4.1,1-5.7
			c0.6-1.6,1.5-3,2.6-4c1.1-1.1,2.4-1.9,3.8-2.5c1.5-0.5,3-0.8,4.7-0.8c1,0,2,0.1,3,0.2c1.1,0.2,2,0.5,2.9,0.9
			c0.9,0.4,1.6,1,2.2,1.7c0.6,0.7,0.8,1.7,0.8,2.8c-0.1,0.9-0.3,1.6-0.8,2.2c-0.4,0.6-1,0.9-1.8,0.8c-0.9,0-1.5-0.2-2-0.6
			c-0.5-0.4-0.7-1-0.7-1.7c0-0.6,0.1-1.1,0.4-1.5s0.5-0.8,0.8-1.1c0.2-0.3,0.4-0.6,0.5-0.9c0.1-0.3-0.1-0.5-0.4-0.8
			c-0.6-0.4-1.3-0.7-2-0.9c-0.7-0.1-1.5-0.2-2.4-0.2c-1.5,0-2.7,0.3-3.7,0.8c-1,0.6-1.8,1.4-2.4,2.4c-0.6,1-1,2.3-1.3,3.8
			s-0.4,3.1-0.4,4.9c0,3.5,0.6,6.4,1.9,8.5s3.3,3.2,6.1,3.2c1.1,0,2.1-0.2,3-0.5s1.7-0.8,2.4-1.4c0.7-0.6,1.3-1.2,1.8-2
			C330.3,135,330.7,134.2,331,133.3z"/>
		<path d="M349.9,116.7v22.1c0,0.3,0.4,0.5,1,0.6l2,0.2v0.9h-10.2v-0.9l2-0.2c0.6,0,0.9-0.2,1-0.6v-22.1h-4.5c-0.4,0-0.9,0.3-1.4,1
			c-0.5,0.7-0.9,1.4-1.3,2.3c-0.5,1-0.9,2.1-1.4,3.4h-1.3l0.5-7.8h23.1l0.5,7.8h-1.3c-0.5-1.2-0.9-2.4-1.4-3.4
			c-0.4-0.9-0.9-1.7-1.4-2.3s-0.9-1-1.3-1H349.9z"/>
	</g>
</g>
</svg>
