<?xml version="1.0" encoding="utf-8"?>
<!-- Generator: Adobe Illustrator 22.1.0, SVG Export Plug-In . SVG Version: 6.00 Build 0)  -->
<svg version="1.1" id="Layer_1" xmlns="http://www.w3.org/2000/svg" xmlns:xlink="http://www.w3.org/1999/xlink" x="0px" y="0px"
	 viewBox="0 0 360 181" style="enable-background:new 0 0 360 181;" xml:space="preserve">
<g>
	<path d="M26.7,109.3l0-2.8c0-7-3.4-9.5-6.1-10.8c2.7-1.4,6.1-3.8,6.1-10.9l0-2.8c0-2.6,2.7-2.6,2.7-2.6v-2.7c0,0-4.1,0-6.1,2
		c-2-2-6.1-2-6.1-2v2.7c0,0,2.7,0,2.7,2.7v8.9c0,1.4-1.4,3.4-2.7,3.4H9.6V82c0-2.6,2.7-2.6,2.7-2.6l0-2.8c0,0-4.1,0-6.1,2.1
		c-2-2-6.1-2-6.1-2v2.7c0,0,2.7,0,2.7,2.6l0,27.4c0,2.7-2.7,2.7-2.7,2.7v2.7c0,0,4.1,0,6.1-2c2,2,6.1,2,6.1,2V112c0,0-2.7,0-2.7-2.7
		l0-12.3h7.5c1.4,0,2.7,2,2.7,3.4v8.8c0,2.8-2.7,2.8-2.7,2.8v2.7c0,0,4.1,0,6.1-2c2,2,6.1,2,6.1,2V112C29.4,112,26.7,112,26.7,109.3
		z"/>
	<path d="M58.7,93.6v-5.4c0-11.6-9.5-11.6-9.5-11.6h-4.8c0,0-9.5,0-9.5,11.6v5.4l-2,2l2,2v5.5c0,11.6,9.5,11.6,9.5,11.6h4.8
		c0,0,9.5,0,9.5-11.6v-5.5l2-2L58.7,93.6z M51.8,93.6l-2,2l2,2v11.7c0,2.6-2.7,2.6-2.7,2.6h-4.8c0,0-2.7,0-2.7-2.6l0-11.7l2-2l-2-2
		l0-11.6c0-2.7,2.7-2.7,2.7-2.7h4.8c0,0,2.7,0,2.7,2.7L51.8,93.6z"/>
	<path d="M118.6,93.6v-5.4c0-11.6-9.5-11.6-9.5-11.6h-4.8c0,0-9.5,0-9.5,11.6v5.4l-2,2l2,2v5.5c0,11.6,9.5,11.6,9.5,11.6h4.8
		c0,0,9.5,0,9.5-11.6v-5.5l2-2L118.6,93.6z M111.8,93.6l-2,2l2,2v11.7c0,2.6-2.7,2.6-2.7,2.6h-4.8c0,0-2.7,0-2.7-2.6V97.7l2-2l-2-2
		V82c0-2.7,2.7-2.7,2.7-2.7h4.8c0,0,2.7,0,2.7,2.7L111.8,93.6z"/>
	<path d="M81.1,76.6h-4.8c0,0-4.1,0-6.1,2c-2-2-6.1-2-6.1-2v2.7c0,0,2.7,0,2.7,2.7v27.3c0,2.7-2.7,2.7-2.7,2.7v2.7c0,0,4.1,0,6.1-2
		c2,2,6.1,2.1,6.1,2.1V112c0,0-2.7,0-2.7-2.7v-9.5h7.5c0,0,9.5,0,9.5-11.6C90.6,76.6,81.1,76.6,81.1,76.6z M83.8,94.3
		c0,2.7-2.7,2.7-2.7,2.7h-7.5V82c0-2.7,2.7-2.7,2.7-2.7h4.8c0,0,2.7,0,2.7,2.7V94.3z"/>
	<path d="M154,79.3v-2.7c0,0-4.1,0-6.1,2c-2-2-6.1-2-6.1-2v2.7c0,0,2.7,0,2.7,2.7v12.3h-10.2V82c0-2.7,2.7-2.7,2.7-2.7v-2.7
		c0,0-4.1,0-6.1,2c-2-2-6.1-2-6.1-2v2.7c0,0,2.7,0,2.7,2.7v11.6l-2,2l2,2v11.6c0,2.7-2.7,2.7-2.7,2.7v2.7c0,0,4.1,0,6.1-2
		c2,2,6.1,2.1,6.1,2.1V112c0,0-2.7,0-2.7-2.7V97h10.2v12.3c0,2.7-2.7,2.7-2.7,2.7v2.7c0,0,4.1,0,6.1-2c2,2,6.1,2.1,6.1,2.1V112
		c0,0-2.7,0-2.7-2.7V97.7l2-2l-2-2V82C151.2,79.3,154,79.3,154,79.3z"/>
	<path d="M185.3,109.3V97.7l2-2l-2-2v-0.7v-8.9c0-5.4-6.1-7.5-9.5-7.5c-0.4,0-1.4,0-2,0c0,0-0.3,0-0.7,0c-0.7,0-1.6,0-2,0
		c-3.4,0-9.5,2-9.5,7.5v8.9v0.7l-2,2l2,2v11.6c0,2.7-2.7,2.7-2.7,2.7v2.7c0,0,4.1,0,6.1-2c2,2,6.1,2.1,6.1,2.1V112
		c0,0-2.7,0-2.7-2.7V97h10.2v12.2c0,2.7-2.7,2.7-2.7,2.7v2.8c0,0,4.1,0,6.1-2.1c2,2,6.1,2,6.1,2V112C188,112,185.3,112,185.3,109.3z
		 M168.3,94.3l0-12.3c0-2.7,2.7-2.7,2.7-2.7h2h0.7h2c0,0,2.7,0,2.7,2.7l0,12.3H168.3z"/>
</g>
</svg>
